<?xml version="1.0" encoding="UTF-8" standalone="no"?>
<!-- Created with Inkscape (http://www.inkscape.org/) -->

<svg
   width="11.63306mm"
   height="11.642698mm"
   viewBox="0 0 11.63306 11.642698"
   version="1.1"
   id="svg1"
   xml:space="preserve"
   inkscape:version="1.3 (0e150ed, 2023-07-21)"
   sodipodi:docname="checkmark.svg"
   xmlns:inkscape="http://www.inkscape.org/namespaces/inkscape"
   xmlns:sodipodi="http://sodipodi.sourceforge.net/DTD/sodipodi-0.dtd"
   xmlns="http://www.w3.org/2000/svg"
   xmlns:svg="http://www.w3.org/2000/svg"><sodipodi:namedview
     id="namedview1"
     pagecolor="#ffffff"
     bordercolor="#cccccc"
     borderopacity="1"
     inkscape:showpageshadow="0"
     inkscape:pageopacity="1"
     inkscape:pagecheckerboard="0"
     inkscape:deskcolor="#d1d1d1"
     inkscape:document-units="mm"
     showgrid="false"
     inkscape:zoom="0.28598739"
     inkscape:cx="-150.35628"
     inkscape:cy="69.933153"
     inkscape:window-width="1240"
     inkscape:window-height="667"
     inkscape:window-x="42"
     inkscape:window-y="25"
     inkscape:window-maximized="0"
     inkscape:current-layer="layer1" /><defs
     id="defs1" /><g
     inkscape:label="Layer 1"
     inkscape:groupmode="layer"
     id="layer1"
     transform="translate(-87.742514,-145.54235)"><path
       style="fill:#6cc68f;fill-opacity:1"
       d="m 93.263386,157.18066 c -1.05889,-0.0847 -1.8783,-0.33414 -2.68496,-0.81717 -1.50607,-0.90184 -2.51192,-2.40029 -2.788882,-4.15471 -0.06307,-0.39953 -0.06262,-1.31313 8.4e-4,-1.69823 0.215892,-1.31008 0.743702,-2.35176 1.653022,-3.26235 1.07202,-1.07354 2.42275,-1.65679 3.94401,-1.70307 1.32271,-0.0402 2.58726,0.35704 3.64257,1.14437 1.06282,0.79293 1.83835,1.94261 2.16051,3.20283 0.23456,0.91757 0.24647,1.89943 0.034,2.80103 -0.191,0.81037 -0.59837,1.6457 -1.12448,2.30582 -0.91493,1.14796 -2.3059,1.93691 -3.75759,2.13127 -0.28265,0.0378 -0.88393,0.0658 -1.07901,0.0502 z m -0.50589,-3.21112 c 0.0842,-0.0408 0.47909,-0.47798 1.98601,-2.19889 1.0345,-1.18141 1.90475,-2.18632 1.93387,-2.23313 0.2057,-0.33058 -0.0452,-0.7757 -0.43723,-0.7757 -0.0692,0 -0.16378,0.0159 -0.21019,0.0352 -0.0464,0.0194 -0.86166,0.70148 -1.81168,1.51574 l -1.7273,1.48049 -0.63699,-0.42346 c -0.35034,-0.23291 -0.68155,-0.44188 -0.73602,-0.46439 -0.22487,-0.0929 -0.50708,0.0137 -0.63207,0.23872 -0.0758,0.13642 -0.0825,0.34108 -0.0154,0.46765 0.0556,0.10491 1.65185,2.23238 1.71644,2.28766 0.15225,0.13032 0.38666,0.1591 0.57059,0.0701 z"
       id="path1" /></g></svg>
